# xmcd
#
# Track frame offsets:
#	225
#	6219
#	23341
#	45575
#	49834
#	73928
#	109894
#	128026
#	149470
#	174827
#	202010
#	216622
#	242541
#	248931
#
# Disc length: 3658 seconds
#
# Revision: 0
# Processed by: cddbd v1.4PL0 Copyright (c) Steve Scherf et al.
# Submitted via: EasyCDDAExtractor 4.6.0.1
#
DISCID=cb0e470e
DTITLE=Alright Blues Band - Live at Pinch Penny Pub
DYEAR=1996
DGENRE=Blues
TTITLE0=Blues Pledge of Allegiance
TTITLE1=I'm Ready
TTITLE2=Nineteen Years Old
TTITLE3=Flassy Intro
TTITLE4=Everyday I Have the Blues
TTITLE5=If I Could Hold You
TTITLE6=Boom Boom
TTITLE7=Smokestack Lightning
TTITLE8=The Blues are Alright
TTITLE9=Have Mercy
TTITLE10=Snatch it Back
TTITLE11=Long Distance Call
TTITLE12=Flassy Outro
TTITLE13=Chameleon
EXTD=
EXTT0=
EXTT1=
EXTT2=
EXTT3=
EXTT4=
EXTT5=
EXTT6=
EXTT7=
EXTT8=
EXTT9=
EXTT10=
EXTT11=
EXTT12=
EXTT13=
PLAYORDER=
